<svg viewBox="0 0 600 450" xmlns="http://www.w3.org/2000/svg" xml:space="preserve" style="fill-rule:evenodd;clip-rule:evenodd;stroke-linejoin:round;stroke-miterlimit:2"><path d="m171.6 180 10.9-6.9v-.1c.8-5.5 2.9-10.7 6-15.2 3.1-4.6 7.2-8.3 12-11.1l81.3-46.8c5.6-3.2 12-4.9 18.5-4.9s12.8 1.7 18.5 4.9c7.4 2.8 13.8 7.8 18.4 14.2 4.6 6.4 7.2 14.1 7.5 22v131.8l29.5 17.1V136c-.2-13.2-4.2-26-11.5-37s-17.5-19.7-29.6-25v.1c-10.1-5.7-21.5-8.7-33-8.6-11.6 0-22.9 3.1-33 8.8l-81.3 46.8c-10.1 5.8-18.5 14.2-24.3 24.3-5.8 10.1-8.9 21.5-8.9 33.2v15.8l.1-.1c5.6-5.6 12-10.4 18.9-14.3Zm154.5 179.5-11.2-6.6c-5.3 2.3-11 3.3-16.8 3-5.7-.3-11.3-2-16.3-4.9l-81.3-46.8c-6-3.5-10.9-8.6-14.2-14.8-3.3-6.2-4.7-13.1-4.3-20.1-.9-7.4.4-14.9 3.7-21.6 3.3-6.7 8.5-12.3 14.9-16.1L314.9 166v-34.3L186 205.9c-5.8 3.1-10.9 7.2-15.2 12.1-6.2 6.4-11 14-14.1 22.4-3.1 8.3-4.6 17.2-4.2 26.1-.9 12.6 1.7 25.2 7.6 36.4 5.9 11.2 14.8 20.5 25.7 26.9l81.3 46.8c10.1 5.8 21.6 8.9 33.2 8.9 11.6 0 23.1-3.1 33.2-8.9l13.9-8c-.1-.1-.1-.1-.3-.1-7.4-2.1-14.4-5.1-21-9Zm113-214.2c-5.8-10.1-14.2-18.5-24.3-24.3l-14-8.1c0 .1.1.4.1.6 1.9 7.3 2.8 14.9 2.8 22.5v13.1c4.6 3.4 8.3 7.9 10.9 13 2.6 5.1 3.9 10.7 3.9 16.4v93.7c0 6.4-1.7 12.8-4.9 18.3-3.2 5.6-7.8 10.2-13.4 13.4-6.1 5-13.6 8.1-21.5 8.9-7.9.8-15.8-.8-22.8-4.5l-114.8-66-29.7 17.1L341 334c11.8 6.5 25.3 9.5 38.8 8.5 13.5-1 26.4-6 37.1-14.2 9.5-6 17.3-14.2 22.7-24 5.4-9.8 8.3-20.8 8.3-32v-93.7c.1-11.7-3-23.2-8.8-33.3Z" style="fill-rule:nonzero"/></svg>