<svg viewBox="0 0 28 34" xmlns="http://www.w3.org/2000/svg" xml:space="preserve" style="fill-rule:evenodd;clip-rule:evenodd;stroke-linejoin:round;stroke-miterlimit:2"><path d="M.641 5.208c1.992-.324 3.551-1.95 3.879-3.917l.11-.946c.027-.15-.076-.359-.268-.344C2.857.116 1.439.607.647.926A1.03 1.03 0 0 0 0 1.879v3.085c0 .183.166.321.349.292l.292-.047v-.001ZM5.48 1.292c.328 1.968 1.887 3.593 3.879 3.917l.292.047A.298.298 0 0 0 10 4.964V1.879c0-.418-.256-.794-.647-.953-.791-.319-2.21-.81-3.715-.925-.192-.015-.292.196-.269.344l.11.946.001.001Zm3.877 4.78c-2.72.531-3.983 2.317-3.983 5.701 0 .17.17.287.313.193 1.251-.834 4.004-3.01 4.288-5.733.011-.344-.423-.182-.618-.161Zm-8.715 0c2.721.531 3.984 2.317 3.984 5.701 0 .17-.171.287-.313.193C3.062 11.132.308 8.956.024 6.233c-.011-.344.423-.182.618-.161Z" style="fill-rule:nonzero" transform="scale(2.77778)"/></svg>