<svg viewBox="0 0 21 21" fill="none" xmlns="http://www.w3.org/2000/svg"><path d="M10.5 4.458c1.475 0 2.796.509 3.838 1.5l2.854-2.854C15.458 1.492 13.196.5 10.5.5a9.995 9.995 0 0 0-8.933 5.508l3.325 2.58c.787-2.371 3-4.13 5.608-4.13Z" fill="#EA4335"/><path d="M20.075 10.728c0-.654-.063-1.288-.158-1.896H10.5v3.758h5.392a4.648 4.648 0 0 1-1.992 2.992l3.22 2.5c1.88-1.742 2.955-4.317 2.955-7.354Z" fill="#4285F4"/><path d="M4.888 12.412a6.075 6.075 0 0 1-.317-1.913c0-.666.112-1.308.317-1.912l-3.325-2.58A9.964 9.964 0 0 0 .5 10.5c0 1.617.383 3.142 1.067 4.492l3.32-2.579Z" fill="#FBBC05"/><path d="M10.5 20.502c2.7 0 4.97-.888 6.62-2.421l-3.22-2.5c-.896.604-2.05.958-3.4.958-2.608 0-4.82-1.758-5.612-4.129l-3.325 2.58c1.65 3.27 5.029 5.512 8.937 5.512Z" fill="#34A853"/>></svg>