<svg viewBox="0 0 32 32" fill="none" xmlns="http://www.w3.org/2000/svg"><path d="m30.42 1-12.507 9.252 2.332-5.454L30.42 1Z" fill="#E17726" stroke="#E17726"/><path d="m1.58 1 12.393 9.328-2.218-5.52L1.58 1Zm24.338 21.444-3.331 5.083 7.129 1.96 2.037-6.928-5.835-.115Zm-25.66.115 2.026 6.929 7.11-1.96-3.312-5.084-5.825.115Z" fill="#E27625" stroke="#E27625"/><path d="m9.013 13.861-1.98 2.989 7.044.323-.228-7.586-4.836 4.284v-.01Zm13.973.01-4.911-4.379-.162 7.681 7.043-.323-1.97-2.98ZM9.394 27.529l4.274-2.056-3.674-2.855-.6 4.911Zm8.947-2.065 4.245 2.065-.57-4.92-3.675 2.855Z" fill="#E27625" stroke="#E27625"/><path d="m22.587 27.529-4.245-2.056.342 2.76-.038 1.17 3.94-1.874Zm-13.192 0 3.96 1.875-.03-1.171.343-2.76-4.273 2.056Z" fill="#D5BFB2" stroke="#D5BFB2"/><path d="M13.42 20.777 9.9 19.75l2.493-1.142 1.038 2.17h-.01Zm5.15 0 1.047-2.18 2.503 1.143-3.55 1.047v-.01Z" fill="#233447" stroke="#233447"/><path d="m9.394 27.527.619-5.083-3.931.114 3.312 4.969Zm12.593-5.083.6 5.083 3.33-4.969-3.93-.114Zm2.979-5.596-7.043.323.647 3.617 1.047-2.189 2.503 1.142 2.846-2.893ZM9.899 19.75l2.494-1.143 1.037 2.17.657-3.616-7.044-.314L9.9 19.75Z" fill="#CC6228" stroke="#CC6228"/><path d="m7.043 16.848 2.95 5.758-.094-2.855-2.856-2.903ZM22.12 19.75l-.114 2.855 2.95-5.758-2.836 2.903Zm-8.033-2.58-.667 3.617.838 4.264.19-5.625-.361-2.256Zm3.826 0-.343 2.247.172 5.634.828-4.273-.657-3.617v.01Z" fill="#E27525" stroke="#E27525"/><path d="m18.57 20.778-.828 4.274.6.418 3.664-2.855.114-2.865-3.55 1.028ZM9.899 19.75l.095 2.855 3.674 2.856.59-.41-.828-4.273-3.54-1.028h.009Z" fill="#F5841F" stroke="#F5841F"/><path d="m18.656 29.402.028-1.17-.323-.267H13.64l-.315.267.03 1.17-3.96-1.875 1.39 1.142 2.807 1.933h4.807l2.817-1.942 1.37-1.133-3.94 1.875h.01Z" fill="#C0AC9D" stroke="#C0AC9D"/><path d="m18.341 25.46-.6-.41h-3.483l-.59.42-.343 2.76.315-.267h4.72l.324.267-.343-2.76v-.01Z" fill="#161616" stroke="#161616"/><path d="M30.953 10.851 32 5.76 30.42 1 18.332 9.947l4.654 3.912 6.568 1.913L31 14.087l-.629-.456 1-.914-.762-.59 1-.762-.666-.514h.009ZM0 5.75l1.066 5.101-.685.505 1.018.761-.761.6.99.914-.629.456 1.447 1.685 6.568-1.904 4.654-3.93L1.58 1 0 5.75Z" fill="#763E1A" stroke="#763E1A"/><path d="m29.554 15.771-6.568-1.903 1.98 2.979-2.95 5.758 3.902-.047h5.835l-2.2-6.787Zm-20.54-1.913-6.568 1.913-2.189 6.787h5.835l3.902.047-2.95-5.758 1.98-2.989h-.01Zm8.9 3.313.428-7.234 1.903-5.14h-8.49l1.904 5.14.428 7.234.162 2.265v5.616h3.493l.019-5.616.152-2.265Z" fill="#F5841F" stroke="#F5841F"/></svg>